<mxfile modified="2024-05-15T19:54:05.579Z" host="app.diagrams.net" agent="Mozilla/5.0 (Windows NT 10.0; Win64; x64) AppleWebKit/537.36 (KHTML, like Gecko) Chrome/124.0.0.0 Safari/537.36" etag="MOM-cSB4u0_NhmthYyTM" version="24.4.2" type="device">
  <diagram id="WI9T0HZ2pTsCkuznbFz-" name="Page-1">
    <mxGraphModel dx="1500" dy="841" grid="1" gridSize="10" guides="1" tooltips="1" connect="1" arrows="1" fold="1" page="1" pageScale="1" pageWidth="827" pageHeight="1169" math="0" shadow="0">
      <root>
        <mxCell id="0" />
        <mxCell id="1" parent="0" />
        <mxCell id="MsttRJyXNo6dyNBD8_uQ-8" style="edgeStyle=orthogonalEdgeStyle;rounded=0;orthogonalLoop=1;jettySize=auto;html=1;" edge="1" parent="1" source="MsttRJyXNo6dyNBD8_uQ-1" target="MsttRJyXNo6dyNBD8_uQ-9">
          <mxGeometry relative="1" as="geometry">
            <mxPoint x="240" y="150" as="targetPoint" />
          </mxGeometry>
        </mxCell>
        <mxCell id="MsttRJyXNo6dyNBD8_uQ-1" value="" style="dashed=0;outlineConnect=0;html=1;align=center;labelPosition=center;verticalLabelPosition=bottom;verticalAlign=top;shape=mxgraph.weblogos.github" vertex="1" parent="1">
          <mxGeometry x="118" y="210" width="75" height="75" as="geometry" />
        </mxCell>
        <mxCell id="MsttRJyXNo6dyNBD8_uQ-7" style="edgeStyle=orthogonalEdgeStyle;rounded=0;orthogonalLoop=1;jettySize=auto;html=1;" edge="1" parent="1" source="MsttRJyXNo6dyNBD8_uQ-3" target="MsttRJyXNo6dyNBD8_uQ-1">
          <mxGeometry relative="1" as="geometry" />
        </mxCell>
        <mxCell id="MsttRJyXNo6dyNBD8_uQ-3" value="" style="shape=image;verticalLabelPosition=bottom;labelBackgroundColor=#ffffff;verticalAlign=top;aspect=fixed;imageAspect=0;image=data:image/svg+xml,PHN2ZyB4bWxuczpjYz0iaHR0cDovL2NyZWF0aXZlY29tbW9ucy5vcmcvbnMjIiB4bWxuczpkYz0iaHR0cDovL3B1cmwub3JnL2RjL2VsZW1lbnRzLzEuMS8iIHhtbG5zOmlua3NjYXBlPSJodHRwOi8vd3d3Lmlua3NjYXBlLm9yZy9uYW1lc3BhY2VzL2lua3NjYXBlIiB4bWxuczpyZGY9Imh0dHA6Ly93d3cudzMub3JnLzE5OTkvMDIvMjItcmRmLXN5bnRheC1ucyMiIHhtbG5zOnNvZGlwb2RpPSJodHRwOi8vc29kaXBvZGkuc291cmNlZm9yZ2UubmV0L0RURC9zb2RpcG9kaS0wLmR0ZCIgeG1sbnM6c3ZnPSJodHRwOi8vd3d3LnczLm9yZy8yMDAwL3N2ZyIgeG1sbnM9Imh0dHA6Ly93d3cudzMub3JnLzIwMDAvc3ZnIiB4bWxuczp4bGluaz0iaHR0cDovL3d3dy53My5vcmcvMTk5OS94bGluayIgdmVyc2lvbj0iMS4xIiBpZD0ic3ZnMjE1ODUzIiBpbmtzY2FwZTp2ZXJzaW9uPSIwLjkyLjMgKDI0MDU1NDYsIDIwMTgtMDMtMTEpIiBzb2RpcG9kaTpkb2NuYW1lPSJ2aXN1YWxfc3R1ZGlvX2NvZGVfbGV0dGVyaW5nLnN2ZyIgeD0iMHB4IiB5PSIwcHgiIHZpZXdCb3g9IjAgMCAxMDQuNDEgMTA0LjQxIiBzdHlsZT0iZW5hYmxlLWJhY2tncm91bmQ6bmV3IDAgMCAxMDQuNDEgMTA0LjQxOyIgeG1sOnNwYWNlPSJwcmVzZXJ2ZSI+JiN4YTs8c29kaXBvZGk6bmFtZWR2aWV3IGJvcmRlcmNvbG9yPSIjNjY2NjY2IiBib3JkZXJvcGFjaXR5PSIxIiBmaXQtbWFyZ2luLWJvdHRvbT0iMCIgZml0LW1hcmdpbi1sZWZ0PSIwIiBmaXQtbWFyZ2luLXJpZ2h0PSIwIiBmaXQtbWFyZ2luLXRvcD0iMCIgZ3JpZHRvbGVyYW5jZT0iMTAiIGd1aWRldG9sZXJhbmNlPSIxMCIgaWQ9Im5hbWVkdmlldzIxNTg1NSIgaW5rc2NhcGU6Y3VycmVudC1sYXllcj0ic3ZnMjE1ODUzIiBpbmtzY2FwZTpjeD0iNjkuNjA3ODQzIiBpbmtzY2FwZTpjeT0iNjkuNjA3NTcxIiBpbmtzY2FwZTpwYWdlb3BhY2l0eT0iMCIgaW5rc2NhcGU6cGFnZXNoYWRvdz0iMiIgaW5rc2NhcGU6d2luZG93LWhlaWdodD0iMTAxNyIgaW5rc2NhcGU6d2luZG93LW1heGltaXplZD0iMSIgaW5rc2NhcGU6d2luZG93LXdpZHRoPSIxOTIwIiBpbmtzY2FwZTp3aW5kb3cteD0iLTgiIGlua3NjYXBlOndpbmRvdy15PSItOCIgaW5rc2NhcGU6em9vbT0iNi4xMTY1MzY5IiBvYmplY3R0b2xlcmFuY2U9IjEwIiBwYWdlY29sb3I9IiNmZmZmZmYiIHNob3dncmlkPSJmYWxzZSI+JiN4YTsJPC9zb2RpcG9kaTpuYW1lZHZpZXc+JiN4YTs8ZyBpZD0iZzIxNTg1MSIgdHJhbnNmb3JtPSJ0cmFuc2xhdGUoLTAuOTQ5MTk1LC0wLjk0OTIwNDM1KSI+JiN4YTsJPHRpdGxlIGlkPSJ0aXRsZTIxNTc1MyI+UGFnZS0xPC90aXRsZT4mI3hhOwk8ZyBpZD0iZ3JvdXAzMzYtMSIgdHJhbnNmb3JtPSJ0cmFuc2xhdGUoMC45NDkxOTUsLTAuOTQ5MTk1KSI+JiN4YTsJCTx0aXRsZSBpZD0idGl0bGUyMTU3NTUiPlZpc3VhbCBTdHVkaW8gQ29kZSAoTGV0dGVyaW5nKTwvdGl0bGU+JiN4YTsJCTxnIGlkPSJzaGFwZTMzNy0yIj4mI3hhOwkJCTx0aXRsZSBpZD0idGl0bGUyMTU3NTciPmNpcmNsZTQzOTM8L3RpdGxlPiYjeGE7CQkJPGNpcmNsZSBpZD0iZWxsaXBzZTIxNTc1OSIgc3R5bGU9ImZpbGw6IzAwN0FDQzsiIGN4PSI1Mi4yMSIgY3k9IjU0LjEiIHI9IjUyLjIxIi8+JiN4YTsJCTwvZz4mI3hhOwkJPGcgaWQ9InNoYXBlMzM4LTQiIHRyYW5zZm9ybT0idHJhbnNsYXRlKDI2LjQ4MjUsLTM5LjQyMDEpIj4mI3hhOwkJCTx0aXRsZSBpZD0idGl0bGUyMTU3NjIiPnBhdGg0Mzk1PC90aXRsZT4mI3hhOwkJCTxwYXRoIGlkPSJwYXRoMjE1NzY0IiBpbmtzY2FwZTpjb25uZWN0b3ItY3VydmF0dXJlPSIwIiBzdHlsZT0iZmlsbDojRkZGRkZGOyIgZD0iTTM3Ljk3LDU1LjYxTDE4LjAzLDc1LjU1TDQuODQsNjUuM0wwLDY4LjI5ICAgICB2MjUuMjlsNC44NCwzLjA0bDEzLjI5LTEwLjI0bDE5LjkzLDE5LjkzbDEyLjY2LTUuNDJWNjAuNDNMMzcuOTcsNTUuNjF6IE01LjQyLDg4LjE1VjczLjY5bDcuMjMsNy4yM0w1LjQyLDg4LjE1eiBNMjUuMzUsODAuOTIgICAgIGwxMi42Mi0xMC44OHYyMS43M0wyNS4zNSw4MC45MnoiLz4mI3hhOwkJPC9nPiYjeGE7CQk8ZyBpZD0iZ3JvdXAzMzktNiIgdHJhbnNmb3JtPSJ0cmFuc2xhdGUoMTIuOTY0MywtMTMuOTE3KSI+JiN4YTsJCQk8dGl0bGUgaWQ9InRpdGxlMjE1NzY3Ij5TaGVldC4zMzk8L3RpdGxlPiYjeGE7CQkJPGcgaWQ9InNoYXBlMzQwLTciIHRyYW5zZm9ybT0idHJhbnNsYXRlKDAsLTE0LjUzNTcpIj4mI3hhOwkJCQk8dGl0bGUgaWQ9InRpdGxlMjE1NzY5Ij5TaGVldC4zNDA8L3RpdGxlPiYjeGE7CQkJCTxwYXRoIGlkPSJwYXRoMjE1NzcxIiBpbmtzY2FwZTpjb25uZWN0b3ItY3VydmF0dXJlPSIwIiBzdHlsZT0iZmlsbDojRkZGRkZGOyIgZD0iTTkuMDcsOTUuNzdsLTMuODksMTAuNTRIMy44M0wwLDk1Ljc3aDEuMzcgICAgICBsMi45Miw4LjM2YzAuMSwwLjI5LDAuMTcsMC42LDAuMjEsMC45M2gwLjAzYzAuMDMtMC4yNCwwLjExLTAuNTUsMC4yNS0wLjk1bDIuOTctOC4zNEw5LjA3LDk1Ljc3eiIvPiYjeGE7CQkJPC9nPiYjeGE7CQkJPGcgaWQ9InNoYXBlMzQxLTkiIHRyYW5zZm9ybT0idHJhbnNsYXRlKDEyLjc1MDYsLTE0LjM1MDkpIj4mI3hhOwkJCQk8dGl0bGUgaWQ9InRpdGxlMjE1Nzc0Ij5TaGVldC4zNDE8L3RpdGxlPiYjeGE7CQkJCTxwYXRoIGlkPSJwYXRoMjE1Nzc2IiBpbmtzY2FwZTpjb25uZWN0b3ItY3VydmF0dXJlPSIwIiBzdHlsZT0iZmlsbDojRkZGRkZGOyIgZD0iTTQuNjIsMTA0LjExYzAsMC42NS0wLjI1LDEuMTgtMC43NSwxLjU5ICAgICAgYy0wLjUxLDAuNDEtMS4xNywwLjYxLTIsMC42MWMtMC43MSwwLTEuMzQtMC4xNS0xLjg3LTAuNDZ2LTEuMjljMC41OSwwLjQ4LDEuMjQsMC43MiwxLjk1LDAuNzJjMC45NiwwLDEuNDQtMC4zNSwxLjQ0LTEuMDUgICAgICBjMC0wLjI4LTAuMS0wLjUyLTAuMjgtMC42OWMtMC4xOS0wLjE4LTAuNjEtMC40Mi0xLjI3LTAuNzNjLTAuNjctMC4yOC0xLjE0LTAuNTktMS40Mi0wLjkxYy0wLjI3LTAuMzMtMC40MS0wLjc2LTAuNDEtMS4zICAgICAgYzAtMC42MiwwLjI1LTEuMTQsMC43NS0xLjU2YzAuNS0wLjQxLDEuMTQtMC42MiwxLjktMC42MmMwLjYsMCwxLjEzLDAuMTIsMS42MiwwLjM1djEuMjJjLTAuNS0wLjM2LTEuMDYtMC41NC0xLjcxLTAuNTQgICAgICBjLTAuNCwwLTAuNzIsMC4wOS0wLjk2LDAuMjljLTAuMjQsMC4yLTAuMzYsMC40NS0wLjM2LDAuNzZjMCwwLjMzLDAuMDksMC41OSwwLjI4LDAuNzdjMC4xOCwwLjE3LDAuNTcsMC4zOSwxLjE1LDAuNjMgICAgICBjMC43MSwwLjMxLDEuMjIsMC42MywxLjUxLDAuOTZTNC42MiwxMDMuNjEsNC42MiwxMDQuMTFMNC42MiwxMDQuMTF6Ii8+JiN4YTsJCQk8L2c+JiN4YTsJCQk8ZyBpZD0ic2hhcGUzNDItMTEiIHRyYW5zZm9ybT0idHJhbnNsYXRlKDE4LjQ4MzQsLTE0LjM1MDkpIj4mI3hhOwkJCQk8dGl0bGUgaWQ9InRpdGxlMjE1Nzc5Ij5TaGVldC4zNDI8L3RpdGxlPiYjeGE7CQkJCTxwYXRoIGlkPSJwYXRoMjE1NzgxIiBpbmtzY2FwZTpjb25uZWN0b3ItY3VydmF0dXJlPSIwIiBzdHlsZT0iZmlsbDojRkZGRkZGOyIgZD0iTTYuMjQsMTA2LjEzaC0xLjJ2LTEuMTlINS4wMSAgICAgIGMtMC41LDAuOTEtMS4yNywxLjM3LTIuMzIsMS4zN2MtMS43OSwwLTIuNjktMS4wNy0yLjY5LTMuMjF2LTQuNWgxLjJ2NC4zMWMwLDEuNTgsMC42MSwyLjM3LDEuODIsMi4zNyAgICAgIGMwLjYsMCwxLjA5LTAuMjEsMS40Ni0wLjY1YzAuMzctMC40MywwLjU2LTEsMC41Ni0xLjY5Vjk4LjZoMS4yQzYuMjQsOTguNiw2LjI0LDEwNi4xMyw2LjI0LDEwNi4xM3oiLz4mI3hhOwkJCTwvZz4mI3hhOwkJCTxnIGlkPSJzaGFwZTM0My0xMyIgdHJhbnNmb3JtPSJ0cmFuc2xhdGUoMjUuOTkyNywtMTQuMzUwOSkiPiYjeGE7CQkJCTx0aXRsZSBpZD0idGl0bGUyMTU3ODQiPlNoZWV0LjM0MzwvdGl0bGU+JiN4YTsJCQkJPHBhdGggaWQ9InBhdGgyMTU3ODYiIGlua3NjYXBlOmNvbm5lY3Rvci1jdXJ2YXR1cmU9IjAiIHN0eWxlPSJmaWxsOiNGRkZGRkY7IiBkPSJNNS45NCwxMDYuMTNoLTEuMnYtMS4xOEg0LjcxICAgICAgYy0wLjUyLDAuOTEtMS4zLDEuMzYtMi4zMiwxLjM2Yy0wLjcyLDAtMS4zLTAuMi0xLjc0LTAuNTljLTAuNDMtMC40LTAuNjUtMC45My0wLjY1LTEuNTljMC0xLjQsMC44My0yLjIyLDIuNDgtMi40NmwyLjI2LTAuMzEgICAgICBjMC0xLjI4LTAuNTItMS45MS0xLjU1LTEuOTFjLTAuOTEsMC0xLjczLDAuMy0yLjQ2LDAuOTJ2LTEuMjRjMC4yMi0wLjE3LDAuNi0wLjMyLDEuMTQtMC40OGMwLjUzLTAuMTUsMS0wLjIzLDEuNDItMC4yMyAgICAgIGMxLjc3LDAsMi42NSwwLjk0LDIuNjUsMi44MUw1Ljk0LDEwNi4xM3ogTTQuNzQsMTAyLjMybC0xLjgyLDAuMjZjLTAuNjIsMC4wOS0xLjA2LDAuMjMtMS4zMSwwLjQ0cy0wLjM4LDAuNTUtMC4zOCwxLjAxICAgICAgYzAsMC4zOCwwLjE0LDAuNjgsMC40MSwwLjkxczAuNjEsMC4zNCwxLjA0LDAuMzRjMC41OSwwLDEuMDktMC4yMSwxLjQ4LTAuNjNjMC4zOC0wLjQyLDAuNTgtMC45NSwwLjU4LTEuNThWMTAyLjMyeiIvPiYjeGE7CQkJPC9nPiYjeGE7CQkJPGcgaWQ9InNoYXBlMzQ0LTE1IiB0cmFuc2Zvcm09InRyYW5zbGF0ZSgzMy43MjMyLC0xNC41MzU3KSI+JiN4YTsJCQkJPHRpdGxlIGlkPSJ0aXRsZTIxNTc4OSI+U2hlZXQuMzQ0PC90aXRsZT4mI3hhOwkJCQk8cGF0aCBpZD0icGF0aDIxNTc5MSIgaW5rc2NhcGU6Y29ubmVjdG9yLWN1cnZhdHVyZT0iMCIgc3R5bGU9ImZpbGw6I0ZGRkZGRjsiIGQ9Ik0xLjIxLDEwNi4zMUgwVjk1LjE3aDEuMjFWMTA2LjMxeiIvPiYjeGE7CQkJPC9nPiYjeGE7CQkJPGcgaWQ9InNoYXBlMzQ1LTE3IiB0cmFuc2Zvcm09InRyYW5zbGF0ZSgzOC42MDI2LC0xNC4zNTA5KSI+JiN4YTsJCQkJPHRpdGxlIGlkPSJ0aXRsZTIxNTc5NCI+U2hlZXQuMzQ1PC90aXRsZT4mI3hhOwkJCQk8cGF0aCBpZD0icGF0aDIxNTc5NiIgaW5rc2NhcGU6Y29ubmVjdG9yLWN1cnZhdHVyZT0iMCIgc3R5bGU9ImZpbGw6I0ZGRkZGRjsiIGQ9Ik01Ljg3LDEwMy40N2MwLDAuODgtMC4zMiwxLjU4LTAuOTQsMi4wOCAgICAgIGMtMC42MywwLjUxLTEuNDgsMC43Ni0yLjU2LDAuNzZjLTAuMzksMC0wLjgzLTAuMDYtMS4zMi0wLjJjLTAuNS0wLjEzLTAuODQtMC4yNi0xLjA1LTAuNHYtMS40NmMwLjMsMC4yNywwLjY5LDAuNDksMS4xOCwwLjY3ICAgICAgYzAuNDgsMC4xOCwwLjk0LDAuMjcsMS4zNiwwLjI3YzEuMzUsMCwyLjAzLTAuNTIsMi4wMy0xLjU4YzAtMC40NC0wLjE1LTAuODItMC40NC0xLjEzYy0wLjI5LTAuMzItMC44OC0wLjczLTEuNzctMS4yNSAgICAgIGMtMC44Ny0wLjQ5LTEuNDgtMC45NS0xLjgzLTEuMzljLTAuMzQtMC40NC0wLjUyLTAuOTgtMC41Mi0xLjYxYzAtMC44MywwLjMxLTEuNTEsMC45NC0yLjAzYzAuNjItMC41MiwxLjQyLTAuNzksMi40MS0wLjc5ICAgICAgYzAuOTQsMCwxLjYzLDAuMTMsMi4wNywwLjM4djEuMzhjLTAuNTUtMC40My0xLjI2LTAuNjUtMi4xNC0wLjY1Yy0wLjU4LDAtMS4wNiwwLjE1LTEuNDMsMC40NHMtMC41NSwwLjY4LTAuNTUsMS4xNiAgICAgIGMwLDAuMzUsMC4wNSwwLjYyLDAuMTYsMC44NGMwLjExLDAuMjEsMC4zLDAuNDEsMC41NiwwLjYyYzAuMjYsMC4yLDAuNywwLjQ4LDEuMzMsMC44M2MwLjkzLDAuNTIsMS41OCwxLjAxLDEuOTUsMS40NyAgICAgIEM1LjY4LDEwMi4zNCw1Ljg3LDEwMi44Nyw1Ljg3LDEwMy40N3oiLz4mI3hhOwkJCTwvZz4mI3hhOwkJCTxnIGlkPSJzaGFwZTM0Ni0xOSIgdHJhbnNmb3JtPSJ0cmFuc2xhdGUoNDQuODc1MywtMTQuMzY3OSkiPiYjeGE7CQkJCTx0aXRsZSBpZD0idGl0bGUyMTU3OTkiPlNoZWV0LjM0NjwvdGl0bGU+JiN4YTsJCQkJPHBhdGggaWQ9InBhdGgyMTU4MDEiIGlua3NjYXBlOmNvbm5lY3Rvci1jdXJ2YXR1cmU9IjAiIHN0eWxlPSJmaWxsOiNGRkZGRkY7IiBkPSJNNC4zOSwxMDYuMDdjLTAuMjksMC4xNi0wLjY2LDAuMjQtMS4xMywwLjI0ICAgICAgYy0xLjMxLDAtMS45Ny0wLjc0LTEuOTctMi4yMnYtNC40NUgwdi0xLjAyaDEuMjl2LTEuODRsMS4yMS0wLjM5djIuMjNoMS44OXYxLjAySDIuNXY0LjI1YzAsMC41LDAuMDgsMC44NiwwLjI1LDEuMDcgICAgICBjMC4xNywwLjIyLDAuNDYsMC4zMiwwLjg2LDAuMzJjMC4zLDAsMC41Ni0wLjA4LDAuNzgtMC4yNEw0LjM5LDEwNi4wN3oiLz4mI3hhOwkJCTwvZz4mI3hhOwkJCTxnIGlkPSJzaGFwZTM0Ny0yMSIgdHJhbnNmb3JtPSJ0cmFuc2xhdGUoNTAuMzAwNSwtMTQuMzUwOSkiPiYjeGE7CQkJCTx0aXRsZSBpZD0idGl0bGUyMTU4MDQiPlNoZWV0LjM0NzwvdGl0bGU+JiN4YTsJCQkJPHBhdGggaWQ9InBhdGgyMTU4MDYiIGlua3NjYXBlOmNvbm5lY3Rvci1jdXJ2YXR1cmU9IjAiIHN0eWxlPSJmaWxsOiNGRkZGRkY7IiBkPSJNNi4yNSwxMDYuMTNINS4wNHYtMS4xOUg1LjAxICAgICAgYy0wLjUsMC45MS0xLjI3LDEuMzctMi4zMSwxLjM3Yy0xLjgsMC0yLjctMS4wNy0yLjctMy4yMXYtNC41aDEuMnY0LjMxYzAsMS41OCwwLjYxLDIuMzcsMS44MywyLjM3YzAuNTksMCwxLjA4LTAuMjEsMS40NS0wLjY1ICAgICAgYzAuMzctMC40MywwLjU2LTEsMC41Ni0xLjY5Vjk4LjZoMS4yTDYuMjUsMTA2LjEzTDYuMjUsMTA2LjEzeiIvPiYjeGE7CQkJPC9nPiYjeGE7CQkJPGcgaWQ9InNoYXBlMzQ4LTIzIiB0cmFuc2Zvcm09InRyYW5zbGF0ZSg1Ny44NTU2LC0xNC4zNTA5KSI+JiN4YTsJCQkJPHRpdGxlIGlkPSJ0aXRsZTIxNTgwOSI+U2hlZXQuMzQ4PC90aXRsZT4mI3hhOwkJCQk8cGF0aCBpZD0icGF0aDIxNTgxMSIgaW5rc2NhcGU6Y29ubmVjdG9yLWN1cnZhdHVyZT0iMCIgc3R5bGU9ImZpbGw6I0ZGRkZGRjsiIGQ9Ik02Ljk0LDEwNi4xM0g1Ljczdi0xLjI4SDUuNyAgICAgIGMtMC41NiwwLjk3LTEuNDIsMS40Ni0yLjU5LDEuNDZjLTAuOTUsMC0xLjctMC4zNC0yLjI3LTEuMDJDMC4yOCwxMDQuNiwwLDEwMy42OSwwLDEwMi41NWMwLTEuMjQsMC4zMS0yLjI1LDAuOTQtMyAgICAgIGMwLjYyLTAuNzUsMS40Ni0xLjEzLDIuNTEtMS4xM2MxLjAyLDAsMS43NywwLjQxLDIuMjUsMS4yMmgwLjAzdi00LjY1aDEuMjFWMTA2LjEzeiBNNS43MywxMDIuNzJ2LTEuMTEgICAgICBjMC0wLjYyLTAuMjEtMS4xMy0wLjYyLTEuNTRjLTAuNDEtMC40Mi0wLjkyLTAuNjItMS41MS0wLjYyYy0wLjczLDAtMS4zLDAuMjctMS43MywwLjhjLTAuNDIsMC41NC0wLjY0LDEuMjgtMC42NCwyLjIzICAgICAgYzAsMC44NiwwLjIsMS41NSwwLjYsMi4wNWMwLjQxLDAuNSwwLjk1LDAuNzUsMS42MywwLjc1YzAuNjYsMCwxLjItMC4yNCwxLjYzLTAuNzJDNS41MiwxMDQuMDgsNS43MywxMDMuNDcsNS43MywxMDIuNzIgICAgICBMNS43MywxMDIuNzJ6Ii8+JiN4YTsJCQk8L2c+JiN4YTsJCQk8ZyBpZD0ic2hhcGUzNDktMjUiIHRyYW5zZm9ybT0idHJhbnNsYXRlKDY5LjE4NTYsLTE0LjM1MDkpIj4mI3hhOwkJCQk8dGl0bGUgaWQ9InRpdGxlMjE1ODE0Ij5TaGVldC4zNDk8L3RpdGxlPiYjeGE7CQkJCTxwYXRoIGlkPSJwYXRoMjE1ODE2IiBpbmtzY2FwZTpjb25uZWN0b3ItY3VydmF0dXJlPSIwIiBzdHlsZT0iZmlsbDojRkZGRkZGOyIgZD0iTTcuNDEsMTAyLjM0YzAsMS4xOS0wLjM0LDIuMTUtMS4wMiwyLjg4ICAgICAgYy0wLjY4LDAuNzMtMS41OSwxLjA5LTIuNzMsMS4wOWMtMS4xMSwwLTItMC4zNS0yLjY3LTEuMDZjLTAuNjYtMC43MS0wLjk5LTEuNjQtMC45OS0yLjhjMC0xLjI0LDAuMzQtMi4yMywxLjAyLTIuOTUgICAgICBjMC42OC0wLjcyLDEuNjItMS4wOCwyLjgyLTEuMDhjMS4xMSwwLDEuOTksMC4zNSwyLjYyLDEuMDVDNy4wOSwxMDAuMTYsNy40MSwxMDEuMTIsNy40MSwxMDIuMzR6IE02LjE3LDEwMi4zOCAgICAgIGMwLTAuOTUtMC4yMS0xLjY3LTAuNjMtMi4xN2MtMC40MS0wLjUxLTEuMDEtMC43Ni0xLjc5LTAuNzZzLTEuMzksMC4yNi0xLjg0LDAuNzdjLTAuNDUsMC41Mi0wLjY3LDEuMjUtMC42NywyLjE5ICAgICAgYzAsMC45LDAuMjIsMS42LDAuNjcsMi4xMWMwLjQ2LDAuNTEsMS4wNywwLjc2LDEuODQsMC43NmMwLjc4LDAsMS4zOC0wLjI1LDEuOC0wLjc1QzUuOTYsMTA0LjAzLDYuMTcsMTAzLjMyLDYuMTcsMTAyLjM4eiIvPiYjeGE7CQkJPC9nPiYjeGE7CQkJPGcgaWQ9InNoYXBlMzUwLTI3IiB0cmFuc2Zvcm09InRyYW5zbGF0ZSg5Ljg5MjYyLC0xNC41MjgpIj4mI3hhOwkJCQk8dGl0bGUgaWQ9InRpdGxlMjE1ODE5Ij5TaGVldC4zNTA8L3RpdGxlPiYjeGE7CQkJCTxwYXRoIGlkPSJwYXRoMjE1ODIxIiBpbmtzY2FwZTpjb25uZWN0b3ItY3VydmF0dXJlPSIwIiBzdHlsZT0iZmlsbDojRkZGRkZGOyIgZD0iTTEuNTgsOTYuM2MwLDAuMjMtMC4wOCwwLjQxLTAuMjMsMC41NiAgICAgIEMxLjE5LDk3LjAxLDEsOTcuMDksMC43OSw5Ny4wOWMtMC4yMiwwLTAuNDEtMC4wNy0wLjU2LTAuMjJDMC4wOCw5Ni43MywwLDk2LjU0LDAsOTYuM2MwLTAuMjEsMC4wOC0wLjM5LDAuMjItMC41NSAgICAgIGMwLjE1LTAuMTUsMC4zNC0wLjIzLDAuNTctMC4yM2MwLjIyLDAsMC40MSwwLjA4LDAuNTYsMC4yM1MxLjU4LDk2LjA5LDEuNTgsOTYuM3ogTTEuMzcsMTA2LjMxaC0xLjJ2LTcuNTNoMS4yVjEwNi4zMXoiLz4mI3hhOwkJCTwvZz4mI3hhOwkJCTxnIGlkPSJzaGFwZTM1MS0yOSIgdHJhbnNmb3JtPSJ0cmFuc2xhdGUoNjYuNDM3OSwtMTQuNTI4KSI+JiN4YTsJCQkJPHRpdGxlIGlkPSJ0aXRsZTIxNTgyNCI+U2hlZXQuMzUxPC90aXRsZT4mI3hhOwkJCQk8cGF0aCBpZD0icGF0aDIxNTgyNiIgaW5rc2NhcGU6Y29ubmVjdG9yLWN1cnZhdHVyZT0iMCIgc3R5bGU9ImZpbGw6I0ZGRkZGRjsiIGQ9Ik0xLjU4LDk2LjNjMCwwLjIzLTAuMDgsMC40MS0wLjIzLDAuNTYgICAgICBDMS4xOSw5Ny4wMSwxLDk3LjA5LDAuNzksOTcuMDljLTAuMjIsMC0wLjQxLTAuMDctMC41Ni0wLjIyQzAuMDgsOTYuNzMsMCw5Ni41NCwwLDk2LjNjMC0wLjIxLDAuMDgtMC4zOSwwLjIzLTAuNTUgICAgICBjMC4xNC0wLjE1LDAuMzMtMC4yMywwLjU2LTAuMjNjMC4yMiwwLDAuNDEsMC4wOCwwLjU2LDAuMjNDMS41MSw5NS45LDEuNTgsOTYuMDksMS41OCw5Ni4zeiBNMS4zNywxMDYuMzFoLTEuMnYtNy41M2gxLjIgICAgICBWMTA2LjMxeiIvPiYjeGE7CQkJPC9nPiYjeGE7CQkJPGcgaWQ9InNoYXBlMzUyLTMxIiB0cmFuc2Zvcm09InRyYW5zbGF0ZSgxOC45ODcsLTAuMTE0MjY2KSI+JiN4YTsJCQkJPHRpdGxlIGlkPSJ0aXRsZTIxNTgyOSI+U2hlZXQuMzUyPC90aXRsZT4mI3hhOwkJCQk8cGF0aCBpZD0icGF0aDIxNTgzMSIgaW5rc2NhcGU6Y29ubmVjdG9yLWN1cnZhdHVyZT0iMCIgc3R5bGU9ImZpbGw6I0ZGRkZGRjsiIGQ9Ik04LjczLDEwMy42MWMtMC4xNiwwLjU0LTAuNjIsMS4wOC0xLjM5LDEuNDYgICAgICBjLTAuNjIsMC4zMS0xLjQ3LDAuNTQtMi4wOSwwLjU0Yy0yLjM5LDAtNC40LTIuMTYtNC40LTQuNzFjMC0xLjE1LDAuMzktMi4zMSwxLjA4LTMuMjRjMC41NC0wLjY5LDEuNTUtMS41NCwzLjA5LTEuNTQgICAgICBjMS42MiwwLDIuNzgsMC42OSwzLjQ3LDEuOTNsMC4wOCwwLjE1bDAuNzctMC4zMWwtMC4wNy0wLjIzYy0wLjg1LTEuNjItMi4yNC0yLjQ3LTQuMjUtMi40N2MtMS4zOSwwLTIuNywwLjYyLTMuNjMsMS43ICAgICAgYy0wLjg1LDEtMS4zOSwyLjQ3LTEuMzksMy44NnMwLjU0LDIuNzgsMS40NywzLjc4YzEsMS4xNiwyLjMxLDEuNzgsMy43OCwxLjc4YzEuNjIsMCwzLjcxLTAuOTMsNC4yNS0yLjYzbDAuMDgtMC4yM2wtMC44NS0wLjIzICAgICAgVjEwMy42MXoiLz4mI3hhOwkJCTwvZz4mI3hhOwkJCTxnIGlkPSJzaGFwZTM1My0zMyIgdHJhbnNmb3JtPSJ0cmFuc2xhdGUoMjkuMDQ0NiwtMC4wNTcxMzMpIj4mI3hhOwkJCQk8dGl0bGUgaWQ9InRpdGxlMjE1ODM0Ij5TaGVldC4zNTM8L3RpdGxlPiYjeGE7CQkJCTxwYXRoIGlkPSJwYXRoMjE1ODM2IiBpbmtzY2FwZTpjb25uZWN0b3ItY3VydmF0dXJlPSIwIiBzdHlsZT0iZmlsbDojRkZGRkZGOyIgZD0iTTMuODMsOTguMDhDMS43Nyw5OC4wOCwwLDk5Ljk3LDAsMTAyLjIgICAgICBjMCwxLjAyLDAuNCwyLjA1LDEuMDMsMi44YzAuNzQsMC44LDEuNzEsMS4yNSwyLjc0LDEuMzFjMi4xMS0wLjA2LDMuODMtMS44OSwzLjgzLTQuMTFDNy42NiwxMDAuMiw2LjExLDk4LjA4LDMuODMsOTguMDh6ICAgICAgIE03LjAzLDEwMi4yYzAsMi4xMS0xLjY2LDMuNDgtMy4yLDMuNDhjLTAuODYsMC0xLjY2LTAuNC0yLjIzLTEuMDhjLTAuNTctMC42My0wLjkxLTEuNTUtMC45MS0yLjQ2YzAtMi4xMSwxLjY1LTMuNTQsMy4yLTMuNTQgICAgICBDNS42LDk4LjcxLDcuMDMsMTAwLjMxLDcuMDMsMTAyLjJ6Ii8+JiN4YTsJCQk8L2c+JiN4YTsJCQk8ZyBpZD0ic2hhcGUzNTQtMzUiIHRyYW5zZm9ybT0idHJhbnNsYXRlKDM3LjY3MTcpIj4mI3hhOwkJCQk8dGl0bGUgaWQ9InRpdGxlMjE1ODM5Ij5TaGVldC4zNTQ8L3RpdGxlPiYjeGE7CQkJCTxwYXRoIGlkPSJwYXRoMjE1ODQxIiBpbmtzY2FwZTpjb25uZWN0b3ItY3VydmF0dXJlPSIwIiBzdHlsZT0iZmlsbDojRkZGRkZGOyIgZD0iTTYuNjgsOTkuNjNjLTAuODUtMS4wMy0xLjgyLTEuNi0yLjk3LTEuNiAgICAgIGMtMS4wMiwwLTIsMC40NS0yLjY4LDEuMjVDMC4zNCwxMDAuMDgsMCwxMDEuMTEsMCwxMDIuMmMwLDEuMDIsMC40LDIuMDUsMS4wOSwyLjhjMC43NCwwLjg1LDEuNzEsMS4zMSwyLjgsMS4zMSAgICAgIGMxLjAyLDAsMi4xMS0wLjU3LDIuODUtMS40M3YxLjM3aDAuNjNWOTVINi43NHY0LjYzSDYuNjh6IE02LjY4LDEwMC43N3YyLjc0YzAsMC41MS0wLjQsMS4wOS0xLjAyLDEuNTQgICAgICBjLTAuNTgsMC40LTEuMjYsMC42OS0xLjgzLDAuNjljLTEuNzcsMC0zLjI2LTEuNi0zLjI2LTMuNDljMC0wLjg1LDAuMjktMS43NywwLjg2LTIuNEMyLDk5LjE3LDIuOCw5OC43NywzLjY2LDk4Ljc3ICAgICAgQzQuOTEsOTguNjUsNi4yOCw5OS42Myw2LjY4LDEwMC43N3oiLz4mI3hhOwkJCTwvZz4mI3hhOwkJCTxnIGlkPSJzaGFwZTM1NS0zNyIgdHJhbnNmb3JtPSJ0cmFuc2xhdGUoNDYuMDEzMSkiPiYjeGE7CQkJCTx0aXRsZSBpZD0idGl0bGUyMTU4NDQiPlNoZWV0LjM1NTwvdGl0bGU+JiN4YTsJCQkJPHBhdGggaWQ9InBhdGgyMTU4NDYiIGlua3NjYXBlOmNvbm5lY3Rvci1jdXJ2YXR1cmU9IjAiIHN0eWxlPSJmaWxsOiNGRkZGRkY7IiBkPSJNNy42NiwxMDIuMmMtMC4wNi0yLjM1LTEuNzItNC4xMi0zLjk1LTQuMTIgICAgICBjLTIuMzQsMC0zLjY1LDIuMTItMy43MSw0LjEyYzAsMS4wMiwwLjQsMi4wNSwxLjA5LDIuOGMwLjc0LDAuODUsMS43MSwxLjMxLDIuOCwxLjMxYzEuMTksMCwyLjY4LTAuNjksMy4xOS0xLjk0bDAuMDYtMC4xNyAgICAgIGwtMC41Ny0wLjE4bC0wLjA2LDAuMTJjLTAuNCwwLjkxLTEuNDgsMS41NC0yLjYyLDEuNTRjLTEuNiwwLTMuMDMtMS4zNy0zLjItMy4yaDcuMDJ2LTAuMjhMNy42NiwxMDIuMnogTTAuNjksMTAxLjkxICAgICAgYzAuMDUtMC44LDAuNC0xLjYsMC44NS0yLjE3YzAuNC0wLjQ2LDEuMDktMS4wMywyLjIzLTEuMDNjMC44NiwwLDEuNjYsMC4zNCwyLjIzLDAuOTJjMC41NywwLjU3LDAuOTEsMS4zNywxLjAzLDIuMjhIMC42OXoiLz4mI3hhOwkJCTwvZz4mI3hhOwkJPC9nPiYjeGE7CTwvZz4mI3hhOzwvZz4mI3hhOzwvc3ZnPg==;" vertex="1" parent="1">
          <mxGeometry x="50" y="350" width="58" height="58" as="geometry" />
        </mxCell>
        <mxCell id="MsttRJyXNo6dyNBD8_uQ-6" value="" style="shape=image;html=1;verticalAlign=top;verticalLabelPosition=bottom;labelBackgroundColor=#ffffff;imageAspect=0;aspect=fixed;image=https://cdn1.iconfinder.com/data/icons/ios-11-glyphs/30/laptop-128.png" vertex="1" parent="1">
          <mxGeometry x="40" y="272" width="78" height="78" as="geometry" />
        </mxCell>
        <mxCell id="MsttRJyXNo6dyNBD8_uQ-14" style="edgeStyle=orthogonalEdgeStyle;rounded=0;orthogonalLoop=1;jettySize=auto;html=1;" edge="1" parent="1" source="MsttRJyXNo6dyNBD8_uQ-9" target="MsttRJyXNo6dyNBD8_uQ-13">
          <mxGeometry relative="1" as="geometry" />
        </mxCell>
        <mxCell id="MsttRJyXNo6dyNBD8_uQ-9" value="" style="shape=image;html=1;verticalAlign=top;verticalLabelPosition=bottom;labelBackgroundColor=#ffffff;imageAspect=0;aspect=fixed;image=https://cdn4.iconfinder.com/data/icons/socialcones/508/Gitlab-128.png" vertex="1" parent="1">
          <mxGeometry x="310" y="110" width="68" height="68" as="geometry" />
        </mxCell>
        <mxCell id="MsttRJyXNo6dyNBD8_uQ-10" value="Container&#xa;Registry" style="sketch=0;html=1;verticalAlign=top;labelPosition=center;verticalLabelPosition=bottom;align=center;spacingTop=-6;fontSize=11;fontStyle=1;fontColor=#999999;shape=image;aspect=fixed;imageAspect=0;image=data:image/svg+xml,PHN2ZyB4bWxucz0iaHR0cDovL3d3dy53My5vcmcvMjAwMC9zdmciIHhtbG5zOnY9Imh0dHBzOi8vdmVjdGEuaW8vbmFubyIgd2lkdGg9IjM3Ny4xNTkzMDIxNjAyNjMwNSIgaGVpZ2h0PSIzMzYuMTYyNDk5MDAzMzEwOCIgdmlld0JveD0iLTAuMDU4MDAwMDA1NzgxNjUwNTQgMC4xMTI5OTk5OTgwMzMwNDY3MiA5OS43OTAwMDA5MTU1MjczNCA4OC45NDMwMDA3OTM0NTcwMyI+JiN4YTs8c3R5bGUgdHlwZT0idGV4dC9jc3MiPiYjeGE7CS5zdDB7ZmlsbDojNjY5ZGY2O30mI3hhOwkuc3Qxe2ZpbGw6I2FlY2JmYTt9JiN4YTsJLnN0MntmaWxsOiM0Mjg1ZjQ7fSYjeGE7PC9zdHlsZT4mI3hhOwk8cGF0aCBjbGFzcz0ic3QwIiBkPSJNNTMuMjQzIDYyLjA5VjQ3LjA5NGwxMy4yMDEgOC40MTZ2MTUuMDM4em0tMzMuMDIxIDBWNDcuMDk0bDEzLjIwMSA4LjQxNnYxNS4wMzh6bTE2LjUxMS0zMi4yODVWMTQuODFsMTMuMjAxIDguNDE2djE1LjAzOHptNjIuOTk5IDMzLjk2VjI1LjQwM2wtOS41NjItMS44ODR2NDIuMTMxem0tOTkuNzg4IDBWMjUuNDAzbDkuNTYyLTEuODg0djQyLjEzMXoiLz4mI3hhOwk8cGF0aCBjbGFzcz0ic3QxIiBkPSJNNTMuMTg1IDQ3LjA5NGwxMy4yNTgtOC4yODcgMTMuMDE2IDguMjM0LTEzLjAxNiA4LjQ2OXptLTMzLjAyMSAwbDEzLjI1OC04LjI4NyAxMy4wMTYgOC4yMzQtMTMuMDE2IDguNDY5ek0zNi42NzUgMTQuODFsMTMuMjU4LTguMjg3IDEzLjAxNiA4LjIzNC0xMy4wMTYgOC40Njl6bTYzLjA1NiA0OC45NTZ2MTIuMjE3TDc3LjAxIDg5LjA1NVY3Ny43NTJ6bTAtMzguMzYzVjEzLjE4Nkw3Ny4wMS4xMTN2MTEuMzAzek0tLjA1OCA2My43NjZ2MTIuMjE3bDIyLjcyMSAxMy4wNzNWNzcuNzUyem0wLTM4LjM2M1YxMy4xODZMMjIuNjYzLjExM3YxMS4zMDN6Ii8+JiN4YTsJPHBhdGggY2xhc3M9InN0MiIgZD0iTTY2LjQ0NCA3MC41NDdWNTUuNTFsMTMuMDE2LTguNDY5djE1LjR6bS0zMy4wMjEgMFY1NS41MWwxMy4wMTYtOC40Njl2MTUuNHptMTYuNTExLTMyLjI4NVYyMy4yMjVsMTMuMDE2LTguNDY5djE1LjR6bTQ5Ljc5OCAyNS41MDNsLTkuNTYyIDUuODh2LTMuOTk2em0wLTM4LjM2M2wtOS41NjItNS44OHYzLjk5NnpNLS4wNTggNjMuNzY2bDkuNTYyIDUuODh2LTMuOTk2em0wLTM4LjM2M2w5LjU2Mi01Ljg4djMuOTk2eiIvPiYjeGE7PC9zdmc+;" vertex="1" parent="1">
          <mxGeometry x="323" y="50" width="42" height="42" as="geometry" />
        </mxCell>
        <mxCell id="MsttRJyXNo6dyNBD8_uQ-11" value="" style="shape=image;verticalLabelPosition=bottom;labelBackgroundColor=#ffffff;verticalAlign=top;aspect=fixed;imageAspect=0;image=data:image/svg+xml,PHN2ZyB4bWxuczpjYz0iaHR0cDovL2NyZWF0aXZlY29tbW9ucy5vcmcvbnMjIiB4bWxuczpkYz0iaHR0cDovL3B1cmwub3JnL2RjL2VsZW1lbnRzLzEuMS8iIHhtbG5zOmlua3NjYXBlPSJodHRwOi8vd3d3Lmlua3NjYXBlLm9yZy9uYW1lc3BhY2VzL2lua3NjYXBlIiB4bWxuczpyZGY9Imh0dHA6Ly93d3cudzMub3JnLzE5OTkvMDIvMjItcmRmLXN5bnRheC1ucyMiIHhtbG5zOnNvZGlwb2RpPSJodHRwOi8vc29kaXBvZGkuc291cmNlZm9yZ2UubmV0L0RURC9zb2RpcG9kaS0wLmR0ZCIgeG1sbnM6c3ZnPSJodHRwOi8vd3d3LnczLm9yZy8yMDAwL3N2ZyIgeG1sbnM9Imh0dHA6Ly93d3cudzMub3JnLzIwMDAvc3ZnIiB4bWxuczp4bGluaz0iaHR0cDovL3d3dy53My5vcmcvMTk5OS94bGluayIgdmVyc2lvbj0iMS4xIiBpZD0ic3ZnMTIyMjgwIiBpbmtzY2FwZTp2ZXJzaW9uPSIwLjkyLjMgKDI0MDU1NDYsIDIwMTgtMDMtMTEpIiBzb2RpcG9kaTpkb2NuYW1lPSJicmFuY2guc3ZnIiB4PSIwcHgiIHk9IjBweCIgdmlld0JveD0iMCAwIDQ2LjUgMzAuNzUiIHN0eWxlPSJlbmFibGUtYmFja2dyb3VuZDpuZXcgMCAwIDQ2LjUgMzAuNzU7IiB4bWw6c3BhY2U9InByZXNlcnZlIj4mI3hhOzxzb2RpcG9kaTpuYW1lZHZpZXcgYm9yZGVyY29sb3I9IiM2NjY2NjYiIGJvcmRlcm9wYWNpdHk9IjEiIGZpdC1tYXJnaW4tYm90dG9tPSIwIiBmaXQtbWFyZ2luLWxlZnQ9IjAiIGZpdC1tYXJnaW4tcmlnaHQ9IjAiIGZpdC1tYXJnaW4tdG9wPSIwIiBncmlkdG9sZXJhbmNlPSIxMCIgZ3VpZGV0b2xlcmFuY2U9IjEwIiBpZD0ibmFtZWR2aWV3MTIyMjgyIiBpbmtzY2FwZTpjdXJyZW50LWxheWVyPSJzdmcxMjIyODAiIGlua3NjYXBlOmN4PSIzMSIgaW5rc2NhcGU6Y3k9IjE3LjAwMDAwMSIgaW5rc2NhcGU6cGFnZW9wYWNpdHk9IjAiIGlua3NjYXBlOnBhZ2VzaGFkb3c9IjIiIGlua3NjYXBlOndpbmRvdy1oZWlnaHQ9IjEwMTciIGlua3NjYXBlOndpbmRvdy1tYXhpbWl6ZWQ9IjEiIGlua3NjYXBlOndpbmRvdy13aWR0aD0iMTkyMCIgaW5rc2NhcGU6d2luZG93LXg9Ii04IiBpbmtzY2FwZTp3aW5kb3cteT0iLTgiIGlua3NjYXBlOnpvb209IjEzLjEzNjM2NCIgb2JqZWN0dG9sZXJhbmNlPSIxMCIgcGFnZWNvbG9yPSIjZmZmZmZmIiBzaG93Z3JpZD0iZmFsc2UiPiYjeGE7CTwvc29kaXBvZGk6bmFtZWR2aWV3PiYjeGE7PGcgaWQ9InNoYXBlODA2LTIiIHRyYW5zZm9ybT0idHJhbnNsYXRlKDYuNzUsLTI0Ljc1KSI+JiN4YTsJPHRpdGxlIGlkPSJ0aXRsZTEyMjI0NSI+bGluZTg2PC90aXRsZT4mI3hhOwkmI3hhOwkJPHBhdGggaWQ9InBhdGgxMjIyNDciIGlua3NjYXBlOmNvbm5lY3Rvci1jdXJ2YXR1cmU9IjAiIHN0eWxlPSJmaWxsOm5vbmU7c3Ryb2tlOiM1NTZBOEE7c3Ryb2tlLXdpZHRoOjEuNTtzdHJva2UtbWl0ZXJsaW1pdDozOyIgZD0iICAgTTAsNDkuNWgzOS43NSIvPiYjeGE7PC9nPiYjeGE7PGcgaWQ9InNoYXBlODA3LTUiIHRyYW5zZm9ybT0idHJhbnNsYXRlKDAuNzUsLTE5LjUpIj4mI3hhOwk8dGl0bGUgaWQ9InRpdGxlMTIyMjUwIj5jaXJjbGU4ODwvdGl0bGU+JiN4YTsJJiN4YTsJCTxjaXJjbGUgaWQ9ImVsbGlwc2UxMjIyNTIiIHN0eWxlPSJmaWxsOiNFNUU1RTU7c3Ryb2tlOiM1NTZBOEE7c3Ryb2tlLXdpZHRoOjEuNTtzdHJva2UtbWl0ZXJsaW1pdDozOyIgY3g9IjUuMjUiIGN5PSI0NC4yNSIgcj0iNS4yNSIvPiYjeGE7PC9nPiYjeGE7PGcgaWQ9InNoYXBlODA4LTciIHRyYW5zZm9ybT0idHJhbnNsYXRlKDMwLC0xOS41KSI+JiN4YTsJPHRpdGxlIGlkPSJ0aXRsZTEyMjI1NSI+Y2lyY2xlOTA8L3RpdGxlPiYjeGE7CSYjeGE7CQk8Y2lyY2xlIGlkPSJlbGxpcHNlMTIyMjU3IiBzdHlsZT0iZmlsbDojRTVFNUU1O3N0cm9rZTojNTU2QThBO3N0cm9rZS13aWR0aDoxLjU7c3Ryb2tlLW1pdGVybGltaXQ6MzsiIGN4PSI1LjI1IiBjeT0iNDQuMjUiIHI9IjUuMjUiLz4mI3hhOzwvZz4mI3hhOzxnIGlkPSJzaGFwZTgwOS05IiB0cmFuc2Zvcm09InRyYW5zbGF0ZSgxNC4yNSwtMjQuNzUpIj4mI3hhOwk8dGl0bGUgaWQ9InRpdGxlMTIyMjYwIj5wYXRoOTI8L3RpdGxlPiYjeGE7CTxwYXRoIGlkPSJwYXRoMTIyMjYyIiBpbmtzY2FwZTpjb25uZWN0b3ItY3VydmF0dXJlPSIwIiBzdHlsZT0iZmlsbDpub25lOyIgZD0iTTAsNDkuNWMwLDAsOC42Mi0wLjM3LDcuODctNy44N1M5LDMwLjc1LDE1LDMwLjc1ICAgaDUuMjVMMCw0OS41eiIvPiYjeGE7CSYjeGE7CQk8cGF0aCBpZD0icGF0aDEyMjI2NCIgaW5rc2NhcGU6Y29ubmVjdG9yLWN1cnZhdHVyZT0iMCIgc3R5bGU9ImZpbGw6bm9uZTtzdHJva2U6IzU1NkE4QTtzdHJva2Utd2lkdGg6MS41O3N0cm9rZS1taXRlcmxpbWl0OjM7IiBkPSIgICBNMCw0OS41YzAsMCw4LjYyLTAuMzcsNy44Ny03Ljg3UzksMzAuNzUsMTUsMzAuNzVoNS4yNSIvPiYjeGE7PC9nPiYjeGE7PGcgaWQ9InNoYXBlODEwLTEyIiB0cmFuc2Zvcm09InRyYW5zbGF0ZSgzMC43NSwtMzguMjUpIj4mI3hhOwk8dGl0bGUgaWQ9InRpdGxlMTIyMjY3Ij5jaXJjbGU5NDwvdGl0bGU+JiN4YTsJJiN4YTsJCTxjaXJjbGUgaWQ9ImVsbGlwc2UxMjIyNjkiIHN0eWxlPSJmaWxsOiMyQkM3RjQ7c3Ryb2tlOiM1NTZBOEE7c3Ryb2tlLXdpZHRoOjEuNTtzdHJva2UtbWl0ZXJsaW1pdDozOyIgY3g9IjUuMjUiIGN5PSI0NC4yNSIgcj0iNS4yNSIvPiYjeGE7PC9nPiYjeGE7PGcgaWQ9InNoYXBlODExLTE0IiB0cmFuc2Zvcm09InRyYW5zbGF0ZSgtMC43NSwtNy41KSI+JiN4YTsJPHRpdGxlIGlkPSJ0aXRsZTEyMjI3MiI+cmVjdDk2PC90aXRsZT4mI3hhOwk8cmVjdCBpZD0icmVjdDEyMjI3NCIgeT0iMS41IiBzdHlsZT0iZmlsbDpub25lOyIgd2lkdGg9IjQ4IiBoZWlnaHQ9IjQ4Ii8+JiN4YTs8L2c+JiN4YTs8L3N2Zz4=;" vertex="1" parent="1">
          <mxGeometry x="230" y="210" width="47" height="31" as="geometry" />
        </mxCell>
        <mxCell id="MsttRJyXNo6dyNBD8_uQ-13" value="" style="shape=image;verticalLabelPosition=bottom;labelBackgroundColor=default;verticalAlign=top;aspect=fixed;imageAspect=0;image=https://wmpromus.com/app/uploads/2023/03/terraform-1024x512.png;" vertex="1" parent="1">
          <mxGeometry x="420" y="190" width="117" height="58.5" as="geometry" />
        </mxCell>
        <mxCell id="MsttRJyXNo6dyNBD8_uQ-29" style="edgeStyle=orthogonalEdgeStyle;rounded=0;orthogonalLoop=1;jettySize=auto;html=1;" edge="1" parent="1" source="MsttRJyXNo6dyNBD8_uQ-18">
          <mxGeometry relative="1" as="geometry">
            <mxPoint x="710" y="330" as="targetPoint" />
          </mxGeometry>
        </mxCell>
        <mxCell id="MsttRJyXNo6dyNBD8_uQ-18" value="" style="shape=image;verticalLabelPosition=bottom;labelBackgroundColor=default;verticalAlign=top;aspect=fixed;imageAspect=0;image=https://www.icm.es/wp-content/uploads/2021/06/aks.jpg;" vertex="1" parent="1">
          <mxGeometry x="640" y="140" width="140" height="140" as="geometry" />
        </mxCell>
        <mxCell id="MsttRJyXNo6dyNBD8_uQ-19" style="edgeStyle=orthogonalEdgeStyle;rounded=0;orthogonalLoop=1;jettySize=auto;html=1;entryX=0.003;entryY=0.567;entryDx=0;entryDy=0;entryPerimeter=0;" edge="1" parent="1" source="MsttRJyXNo6dyNBD8_uQ-13" target="MsttRJyXNo6dyNBD8_uQ-18">
          <mxGeometry relative="1" as="geometry" />
        </mxCell>
        <mxCell id="MsttRJyXNo6dyNBD8_uQ-20" value="git clone https://repository &amp;amp;&amp;amp; create new branch to work" style="text;html=1;align=center;verticalAlign=middle;whiteSpace=wrap;rounded=0;fontStyle=1" vertex="1" parent="1">
          <mxGeometry x="58" y="430" width="142" height="20" as="geometry" />
        </mxCell>
        <mxCell id="MsttRJyXNo6dyNBD8_uQ-21" value="&lt;code&gt;http://192.168.1.39:5050&lt;/code&gt;" style="text;whiteSpace=wrap;html=1;fontStyle=1" vertex="1" parent="1">
          <mxGeometry x="260" y="10" width="190" height="40" as="geometry" />
        </mxCell>
        <mxCell id="MsttRJyXNo6dyNBD8_uQ-22" value="&lt;code&gt;Pull request to main and CI/CD the events defined in .gitlab-ci.yml&lt;/code&gt;&lt;div&gt;&lt;code&gt;&lt;br&gt;&lt;/code&gt;&lt;/div&gt;" style="text;whiteSpace=wrap;html=1;fontStyle=1" vertex="1" parent="1">
          <mxGeometry x="200" y="248.5" width="180" height="51.5" as="geometry" />
        </mxCell>
        <mxCell id="MsttRJyXNo6dyNBD8_uQ-33" style="edgeStyle=orthogonalEdgeStyle;rounded=0;orthogonalLoop=1;jettySize=auto;html=1;" edge="1" parent="1" source="MsttRJyXNo6dyNBD8_uQ-30">
          <mxGeometry relative="1" as="geometry">
            <mxPoint x="551" y="411" as="targetPoint" />
          </mxGeometry>
        </mxCell>
        <mxCell id="MsttRJyXNo6dyNBD8_uQ-30" value="" style="shape=image;verticalLabelPosition=bottom;labelBackgroundColor=default;verticalAlign=top;aspect=fixed;imageAspect=0;image=https://miro.medium.com/v2/resize:fit:600/1*Pbb5rmrwh-eAFWXd8ws79A.png;" vertex="1" parent="1">
          <mxGeometry x="660" y="330" width="100" height="50" as="geometry" />
        </mxCell>
        <mxCell id="MsttRJyXNo6dyNBD8_uQ-31" value="&lt;code&gt;All the steps are defined in main.tf, variables.tf&lt;/code&gt;" style="text;whiteSpace=wrap;html=1;fontStyle=1" vertex="1" parent="1">
          <mxGeometry x="420" y="100" width="190" height="40" as="geometry" />
        </mxCell>
        <mxCell id="MsttRJyXNo6dyNBD8_uQ-34" value="" style="image;aspect=fixed;perimeter=ellipsePerimeter;html=1;align=center;shadow=0;dashed=0;spacingTop=3;image=img/lib/active_directory/web_server.svg;" vertex="1" parent="1">
          <mxGeometry x="538.3000000000002" y="428.29999999999995" width="33.36" height="41.7" as="geometry" />
        </mxCell>
        <mxCell id="MsttRJyXNo6dyNBD8_uQ-35" value="" style="image;aspect=fixed;perimeter=ellipsePerimeter;html=1;align=center;shadow=0;dashed=0;spacingTop=3;image=img/lib/active_directory/database_server.svg;" vertex="1" parent="1">
          <mxGeometry x="770" y="444.5" width="41" height="50" as="geometry" />
        </mxCell>
        <mxCell id="MsttRJyXNo6dyNBD8_uQ-36" style="edgeStyle=orthogonalEdgeStyle;rounded=0;orthogonalLoop=1;jettySize=auto;html=1;" edge="1" parent="1" source="MsttRJyXNo6dyNBD8_uQ-37" target="MsttRJyXNo6dyNBD8_uQ-35">
          <mxGeometry relative="1" as="geometry" />
        </mxCell>
        <mxCell id="MsttRJyXNo6dyNBD8_uQ-37" value="" style="image;aspect=fixed;perimeter=ellipsePerimeter;html=1;align=center;shadow=0;dashed=0;spacingTop=3;image=img/lib/active_directory/generic_server.svg;" vertex="1" parent="1">
          <mxGeometry x="690" y="520" width="28.000000000000004" height="50" as="geometry" />
        </mxCell>
        <mxCell id="MsttRJyXNo6dyNBD8_uQ-38" style="edgeStyle=orthogonalEdgeStyle;rounded=0;orthogonalLoop=1;jettySize=auto;html=1;" edge="1" parent="1" source="MsttRJyXNo6dyNBD8_uQ-39" target="MsttRJyXNo6dyNBD8_uQ-35">
          <mxGeometry relative="1" as="geometry" />
        </mxCell>
        <mxCell id="MsttRJyXNo6dyNBD8_uQ-39" value="" style="image;aspect=fixed;perimeter=ellipsePerimeter;html=1;align=center;shadow=0;dashed=0;spacingTop=3;image=img/lib/active_directory/generic_server.svg;" vertex="1" parent="1">
          <mxGeometry x="690" y="390" width="28.000000000000004" height="50" as="geometry" />
        </mxCell>
        <mxCell id="MsttRJyXNo6dyNBD8_uQ-40" style="edgeStyle=orthogonalEdgeStyle;rounded=0;orthogonalLoop=1;jettySize=auto;html=1;exitX=0.875;exitY=0.5;exitDx=0;exitDy=0;exitPerimeter=0;" edge="1" parent="1" source="MsttRJyXNo6dyNBD8_uQ-47" target="MsttRJyXNo6dyNBD8_uQ-39">
          <mxGeometry relative="1" as="geometry">
            <Array as="points">
              <mxPoint x="629" y="470" />
              <mxPoint x="668" y="470" />
              <mxPoint x="668" y="415" />
            </Array>
          </mxGeometry>
        </mxCell>
        <mxCell id="MsttRJyXNo6dyNBD8_uQ-41" value="App2" style="text;html=1;align=center;verticalAlign=middle;whiteSpace=wrap;rounded=0;" vertex="1" parent="1">
          <mxGeometry x="680.1999999999998" y="570" width="47.6" height="29.5" as="geometry" />
        </mxCell>
        <mxCell id="MsttRJyXNo6dyNBD8_uQ-42" value="App1" style="text;html=1;align=center;verticalAlign=middle;whiteSpace=wrap;rounded=0;" vertex="1" parent="1">
          <mxGeometry x="680.1999999999998" y="440" width="47.6" height="29.5" as="geometry" />
        </mxCell>
        <mxCell id="MsttRJyXNo6dyNBD8_uQ-43" value="Db" style="text;html=1;align=center;verticalAlign=middle;whiteSpace=wrap;rounded=0;" vertex="1" parent="1">
          <mxGeometry x="743.3999999999996" y="490.5" width="47.6" height="29.5" as="geometry" />
        </mxCell>
        <mxCell id="MsttRJyXNo6dyNBD8_uQ-44" style="edgeStyle=orthogonalEdgeStyle;rounded=0;orthogonalLoop=1;jettySize=auto;html=1;exitX=0.883;exitY=0.501;exitDx=0;exitDy=0;exitPerimeter=0;" edge="1" parent="1" source="MsttRJyXNo6dyNBD8_uQ-47">
          <mxGeometry relative="1" as="geometry">
            <mxPoint x="690" y="544" as="targetPoint" />
            <Array as="points">
              <mxPoint x="635" y="470" />
              <mxPoint x="668" y="470" />
              <mxPoint x="668" y="544" />
            </Array>
          </mxGeometry>
        </mxCell>
        <mxCell id="MsttRJyXNo6dyNBD8_uQ-45" value="http://local_ip/" style="sketch=0;pointerEvents=1;shadow=0;dashed=0;html=1;strokeColor=none;fillColor=#434445;aspect=fixed;labelPosition=center;verticalLabelPosition=bottom;verticalAlign=top;align=center;outlineConnect=0;shape=mxgraph.vvd.web_browser;" vertex="1" parent="1">
          <mxGeometry x="480.00000000000034" y="540.5" width="50" height="35.5" as="geometry" />
        </mxCell>
        <mxCell id="MsttRJyXNo6dyNBD8_uQ-46" value="http://local_ip/version" style="sketch=0;pointerEvents=1;shadow=0;dashed=0;html=1;strokeColor=none;fillColor=#434445;aspect=fixed;labelPosition=center;verticalLabelPosition=bottom;verticalAlign=top;align=center;outlineConnect=0;shape=mxgraph.vvd.web_browser;" vertex="1" parent="1">
          <mxGeometry x="580.0000000000003" y="540.5" width="50" height="35.5" as="geometry" />
        </mxCell>
        <mxCell id="MsttRJyXNo6dyNBD8_uQ-47" value="" style="ellipse;shape=cloud;whiteSpace=wrap;html=1;align=center;fillColor=none;" vertex="1" parent="1">
          <mxGeometry x="470" y="400" width="176.2" height="140.5" as="geometry" />
        </mxCell>
        <mxCell id="MsttRJyXNo6dyNBD8_uQ-48" value="Nginx loadbalancer &amp;amp; reverse proxy" style="text;html=1;align=center;verticalAlign=middle;whiteSpace=wrap;rounded=0;" vertex="1" parent="1">
          <mxGeometry x="500" y="470" width="110" height="40" as="geometry" />
        </mxCell>
      </root>
    </mxGraphModel>
  </diagram>
</mxfile>
